<svg width="118" height="70" viewBox="0 0 118 70" fill="none" xmlns="http://www.w3.org/2000/svg">
<path d="M78.3602 21.7787L80.1219 23.2065L91.7506 14.5323L88.2623 9.85687L80.2225 15.8535C66.1904 5.59417 50.2902 6.47646 39.2244 18.3356C35.4385 22.3927 33.149 27.3948 32.5204 32.7323L32.5 32.725L22.2756 61.25H56.6806H56.9256C63.0258 61.2223 69.0648 58.819 73.4106 54.1625C80.2473 46.8373 80.0767 34.9402 73.0329 27.6456C69.3681 23.8496 64.6227 21.6796 60.0013 21.6796C59.9706 21.6796 59.9385 21.6796 59.9079 21.6796C55.7517 21.7058 51.9308 23.4471 48.8552 26.7138C44.069 31.799 44.1754 40.6773 49.0812 45.7129C52.7708 49.5017 59.4267 51.011 63.7492 46.8417C65.3869 45.2623 66.2035 42.8283 65.9337 40.3317C65.6669 37.8627 64.4098 35.7656 62.4862 34.5829L60.0027 33.0546L56.9446 38.0231L59.4281 39.5515C59.7883 39.7731 60.0669 40.3258 60.134 40.9617C60.2083 41.6471 60.0333 42.3238 59.6994 42.6446C57.8838 44.396 54.741 43.1608 53.2594 41.6427C50.5279 38.8398 50.4506 33.5271 53.1019 30.711C55.0837 28.6052 57.3865 27.529 59.9429 27.5129C59.9633 27.5129 59.9823 27.5129 60.0013 27.5129C63.0477 27.5129 66.2633 29.0354 68.8344 31.6983C73.6746 36.7106 73.816 45.1762 69.1435 50.1842C63.0404 56.7219 52.415 57.2031 45.4587 51.2502C41.0794 47.5023 38.4952 42.3821 38.1846 36.8317C37.8827 31.4592 39.7669 26.304 43.49 22.314C52.924 12.2062 66.2867 12.0006 78.3602 21.7787ZM41.3871 55.4167H30.5633L34.1873 45.309C35.7142 49.1225 38.1525 52.5715 41.3871 55.4167Z" fill="#EA3800" fill-opacity="0.3"/>
<path d="M1.36 42V28H3.92L10.5 37.86V28H13.06V42H10.5L3.92 32.16V42H1.36ZM17.0941 30.54C16.6274 30.54 16.2407 30.4 15.9341 30.12C15.6407 29.84 15.4941 29.4867 15.4941 29.06C15.4941 28.6333 15.6407 28.2867 15.9341 28.02C16.2407 27.74 16.6274 27.6 17.0941 27.6C17.5607 27.6 17.9407 27.74 18.2341 28.02C18.5407 28.2867 18.6941 28.6333 18.6941 29.06C18.6941 29.4867 18.5407 29.84 18.2341 30.12C17.9407 30.4 17.5607 30.54 17.0941 30.54ZM15.8141 42V32.08H18.3741V42H15.8141ZM21.0461 42V32.08H23.3061L23.5061 33.76C23.8128 33.1733 24.2528 32.7067 24.8261 32.36C25.4128 32.0133 26.0994 31.84 26.8861 31.84C28.1128 31.84 29.0661 32.2267 29.7461 33C30.4261 33.7733 30.7661 34.9067 30.7661 36.4V42H28.2061V36.64C28.2061 35.7867 28.0328 35.1333 27.6861 34.68C27.3394 34.2267 26.7994 34 26.0661 34C25.3461 34 24.7528 34.2533 24.2861 34.76C23.8328 35.2667 23.6061 35.9733 23.6061 36.88V42H21.0461ZM34.6341 30.54C34.1674 30.54 33.7807 30.4 33.4741 30.12C33.1807 29.84 33.0341 29.4867 33.0341 29.06C33.0341 28.6333 33.1807 28.2867 33.4741 28.02C33.7807 27.74 34.1674 27.6 34.6341 27.6C35.1007 27.6 35.4807 27.74 35.7741 28.02C36.0807 28.2867 36.2341 28.6333 36.2341 29.06C36.2341 29.4867 36.0807 29.84 35.7741 30.12C35.4807 30.4 35.1007 30.54 34.6341 30.54ZM31.3341 46.4V44.22H32.1141C32.5541 44.22 32.8674 44.1333 33.0541 43.96C33.2407 43.7867 33.3341 43.4933 33.3341 43.08V32.08H35.8941V43.08C35.8941 44.28 35.5874 45.1333 34.9741 45.64C34.3741 46.1467 33.5541 46.4 32.5141 46.4H31.3341ZM41.9856 42.24C41.1323 42.24 40.4323 42.1067 39.8856 41.84C39.339 41.56 38.9323 41.1933 38.6656 40.74C38.399 40.2867 38.2656 39.7867 38.2656 39.24C38.2656 38.32 38.6256 37.5733 39.3456 37C40.0656 36.4267 41.1456 36.14 42.5856 36.14H45.1056V35.9C45.1056 35.22 44.9123 34.72 44.5256 34.4C44.139 34.08 43.659 33.92 43.0856 33.92C42.5656 33.92 42.1123 34.0467 41.7256 34.3C41.339 34.54 41.099 34.9 41.0056 35.38H38.5056C38.5723 34.66 38.8123 34.0333 39.2256 33.5C39.6523 32.9667 40.199 32.56 40.8656 32.28C41.5323 31.9867 42.279 31.84 43.1056 31.84C44.519 31.84 45.6323 32.1933 46.4456 32.9C47.259 33.6067 47.6656 34.6067 47.6656 35.9V42H45.4856L45.2456 40.4C44.9523 40.9333 44.539 41.3733 44.0056 41.72C43.4856 42.0667 42.8123 42.24 41.9856 42.24ZM42.5656 40.24C43.299 40.24 43.8656 40 44.2656 39.52C44.679 39.04 44.939 38.4467 45.0456 37.74H42.8656C42.1856 37.74 41.699 37.8667 41.4056 38.12C41.1123 38.36 40.9656 38.66 40.9656 39.02C40.9656 39.4067 41.1123 39.7067 41.4056 39.92C41.699 40.1333 42.0856 40.24 42.5656 40.24ZM54.9342 42V28H63.9742V30.06H57.4942V33.98H62.7342V36H57.4942V42H54.9342ZM69.6098 42.24C68.3698 42.24 67.4098 41.8533 66.7298 41.08C66.0632 40.3067 65.7298 39.1733 65.7298 37.68V32.08H68.2698V37.44C68.2698 38.2933 68.4432 38.9467 68.7898 39.4C69.1365 39.8533 69.6832 40.08 70.4298 40.08C71.1365 40.08 71.7165 39.8267 72.1698 39.32C72.6365 38.8133 72.8698 38.1067 72.8698 37.2V32.08H75.4298V42H73.1698L72.9698 40.32C72.6632 40.9067 72.2165 41.3733 71.6298 41.72C71.0565 42.0667 70.3832 42.24 69.6098 42.24ZM82.4778 42C81.4378 42 80.6045 41.7467 79.9778 41.24C79.3511 40.7333 79.0378 39.8333 79.0378 38.54V34.22H77.3378V32.08H79.0378L79.3378 29.42H81.5978V32.08H84.2778V34.22H81.5978V38.56C81.5978 39.04 81.6978 39.3733 81.8978 39.56C82.1111 39.7333 82.4711 39.82 82.9778 39.82H84.2178V42H82.4778ZM90.1958 42.24C88.9558 42.24 87.9958 41.8533 87.3158 41.08C86.6491 40.3067 86.3158 39.1733 86.3158 37.68V32.08H88.8558V37.44C88.8558 38.2933 89.0291 38.9467 89.3758 39.4C89.7224 39.8533 90.2691 40.08 91.0158 40.08C91.7224 40.08 92.3024 39.8267 92.7558 39.32C93.2224 38.8133 93.4558 38.1067 93.4558 37.2V32.08H96.0158V42H93.7558L93.5558 40.32C93.2491 40.9067 92.8024 41.3733 92.2158 41.72C91.6424 42.0667 90.9691 42.24 90.1958 42.24ZM98.6438 42V32.08H100.924L101.164 33.94C101.524 33.3 102.01 32.7933 102.624 32.42C103.25 32.0333 103.984 31.84 104.824 31.84V34.54H104.104C103.544 34.54 103.044 34.6267 102.604 34.8C102.164 34.9733 101.817 35.2733 101.564 35.7C101.324 36.1267 101.204 36.72 101.204 37.48V42H98.6438ZM111.218 42.24C110.218 42.24 109.331 42.0267 108.558 41.6C107.784 41.1733 107.178 40.5733 106.738 39.8C106.298 39.0267 106.078 38.1333 106.078 37.12C106.078 36.0933 106.291 35.18 106.718 34.38C107.158 33.58 107.758 32.96 108.518 32.52C109.291 32.0667 110.198 31.84 111.238 31.84C112.211 31.84 113.071 32.0533 113.818 32.48C114.564 32.9067 115.144 33.4933 115.558 34.24C115.984 34.9733 116.198 35.7933 116.198 36.7C116.198 36.8467 116.191 37 116.178 37.16C116.178 37.32 116.171 37.4867 116.158 37.66H108.618C108.671 38.4333 108.938 39.04 109.418 39.48C109.911 39.92 110.504 40.14 111.198 40.14C111.718 40.14 112.151 40.0267 112.498 39.8C112.858 39.56 113.124 39.2533 113.298 38.88H115.898C115.711 39.5067 115.398 40.08 114.958 40.6C114.531 41.1067 113.998 41.5067 113.358 41.8C112.731 42.0933 112.018 42.24 111.218 42.24ZM111.238 33.92C110.611 33.92 110.058 34.1 109.578 34.46C109.098 34.8067 108.791 35.34 108.658 36.06H113.598C113.558 35.4067 113.318 34.8867 112.878 34.5C112.438 34.1133 111.891 33.92 111.238 33.92Z" fill="#00856E"/>
</svg>
